<svg width="273" height="301" viewBox="0 0 273 301" fill="none" xmlns="http://www.w3.org/2000/svg">
<path d="M258.63 76.5704C258.637 76.8215 258.573 77.0696 258.446 77.2862C258.319 77.5028 258.133 77.6791 257.91 77.795C257.689 77.9133 257.439 77.9678 257.188 77.9525C256.938 77.9373 256.696 77.8528 256.491 77.7086C248.17 71.8878 238.431 66.6434 225.253 64.7459C224.726 64.67 224.222 64.4799 223.776 64.189C223.329 63.8981 222.952 63.5134 222.67 63.0616C217.8 55.2353 205.831 41.7467 193.266 33.759C193.028 33.609 192.839 33.3923 192.723 33.136C192.607 32.8796 192.569 32.5948 192.613 32.3169C192.657 32.0389 192.782 31.78 192.972 31.5723C193.162 31.3646 193.408 31.2172 193.681 31.1483C221.422 23.8104 238.212 27.9902 249.909 31.5301C251.106 31.8908 252.179 32.578 253.007 33.5146C253.835 34.4512 254.385 35.6001 254.596 36.8322C256.92 50.4087 258.237 63.6711 258.63 76.5689V76.5704ZM248.033 156.4C247.929 156.741 247.737 157.05 247.476 157.294C247.215 157.538 246.894 157.71 246.546 157.791C246.198 157.871 245.836 157.861 245.493 157.761C245.15 157.661 244.838 157.475 244.587 157.221C236.385 148.802 224.704 143.417 214.878 140.161C214.585 140.066 214.313 139.914 214.079 139.713C213.845 139.512 213.653 139.266 213.515 138.991C213.237 138.429 213.151 137.779 213.391 137.2C221.421 118.073 229.104 96.9805 227.799 81.263C227.703 80.1493 227.972 79.0442 228.826 78.3224C229.248 77.9665 229.755 77.728 230.298 77.6308C230.841 77.5337 231.4 77.5814 231.918 77.7691C235.405 79.0341 238.758 80.7861 241.802 82.7312C251.235 88.7334 257.237 96.5598 257.362 111.238C255.701 127.022 252.552 142.113 248.033 156.4ZM235.818 186.825C230.327 197.954 223.827 208.557 216.4 218.499C216.219 218.741 215.978 218.931 215.701 219.052C215.424 219.172 215.121 219.218 214.82 219.185C214.52 219.154 214.233 219.045 213.989 218.867C213.745 218.69 213.551 218.452 213.429 218.176C210.039 210.587 203.757 200.983 194.834 194.356C194.35 194.003 194.024 193.474 193.925 192.884C193.827 192.293 193.963 191.687 194.305 191.196C196.995 187.263 200.799 181.429 204.458 174.365C206.519 170.421 207.745 166.094 208.06 161.656C208.281 158.666 208.472 156.201 208.627 154.145C208.667 153.662 208.823 153.196 209.08 152.786C209.336 152.375 209.687 152.031 210.103 151.783C210.524 151.534 210.998 151.388 211.486 151.359C211.974 151.329 212.462 151.416 212.91 151.612C232.466 160.141 242.407 170.947 235.818 186.825ZM161.608 268.763C161.236 268.988 160.811 269.107 160.376 269.109C159.942 269.111 159.515 268.995 159.142 268.773C158.756 268.55 158.44 268.225 158.229 267.833C158.017 267.442 157.917 266.999 157.941 266.555C158.498 257.262 154.885 247.17 145.992 239.34C145.782 239.153 145.629 238.91 145.55 238.64C145.472 238.37 145.472 238.083 145.549 237.812C145.63 237.542 145.786 237.3 145.998 237.115C146.211 236.93 146.472 236.809 146.751 236.766C152.609 235.844 158.902 234.043 163.694 232.139C168.378 230.347 172.27 226.945 174.673 222.543L175.336 221.327L175.404 221.363C178.928 214.903 182.126 208.799 185.633 203.809C185.825 203.533 186.075 203.304 186.365 203.137C186.655 202.969 186.979 202.868 187.313 202.84C187.986 202.768 188.667 203.002 189.147 203.476C196.708 210.789 200.926 222.931 198.132 234.049C198.114 234.014 198.096 233.979 198.077 233.944C196.981 238.393 194.771 242.489 191.654 245.848C182.392 254.387 172.356 262.047 161.676 268.73C161.657 268.74 161.63 268.763 161.608 268.763ZM137.703 279.187C136.995 279.871 136.094 280.322 135.122 280.478C134.15 280.634 133.154 280.489 132.267 280.062C115.947 272.174 101.068 262.539 87.5449 250.981V250.96C83.0208 247.074 74.5404 240.845 74.5404 226.952C74.5404 218.079 78.393 209.286 84.3953 203.476C84.6354 203.241 84.9244 203.063 85.2414 202.954C85.5585 202.844 85.8959 202.806 86.2294 202.842C86.5635 202.87 86.8873 202.971 87.1778 203.138C87.4684 203.305 87.7187 203.534 87.9108 203.809C91.4133 208.794 94.6119 214.895 98.1331 221.35L98.1101 221.364C98.3219 221.753 98.5337 222.154 98.7541 222.544C101.165 226.942 105.059 230.342 109.742 232.139C116.513 234.719 117.244 234.36 121.116 236.235C138.75 244.904 155.406 261.992 137.703 279.187ZM60.1153 218.176C59.992 218.452 59.7981 218.69 59.5533 218.867C59.3084 219.044 59.0212 219.154 58.7206 219.185C58.4211 219.218 58.1181 219.172 57.8418 219.052C57.5655 218.931 57.3255 218.741 57.1458 218.499C49.7158 208.558 43.2146 197.955 37.7241 186.825C31.1369 170.947 41.0768 160.141 60.6325 151.612C61.0802 151.416 61.5682 151.329 62.056 151.359C62.5438 151.39 63.0175 151.535 63.4377 151.785C64.282 152.289 64.8396 153.174 64.916 154.145C65.0701 156.201 65.2617 158.666 65.4836 161.656C65.7993 166.094 67.0254 170.42 69.0856 174.363C72.7437 181.429 76.5474 187.264 79.2373 191.196C79.5794 191.687 79.7157 192.293 79.6171 192.883C79.5186 193.474 79.193 194.002 78.71 194.356C69.7844 200.983 63.504 210.587 60.1153 218.176ZM26.9961 157.793C26.6479 157.711 26.3272 157.539 26.0659 157.294C25.8046 157.05 25.6117 156.742 25.5063 156.4C20.9923 142.113 17.8414 127.022 16.1801 111.238C16.3055 96.5598 22.3078 88.7334 31.7406 82.7312C34.7849 80.7861 38.1376 79.0341 41.6243 77.7691C42.1428 77.5811 42.7017 77.5332 43.2446 77.6304C43.7875 77.7275 44.2951 77.9662 44.7162 78.3224C45.572 79.0442 45.84 80.1493 45.7435 81.263C44.4396 96.9819 52.1218 118.073 60.1513 137.2C60.3919 137.779 60.3055 138.429 60.0288 138.991C59.7493 139.543 59.2595 139.97 58.663 140.161C48.8368 143.417 37.1579 148.802 28.9541 157.219C28.7035 157.474 28.3919 157.661 28.0489 157.761C27.7058 157.861 27.3429 157.871 26.9946 157.791L26.9961 157.793ZM14.9137 76.5704C15.307 63.6711 16.621 50.4087 18.9464 36.8337C19.1574 35.6015 19.7078 34.4526 20.5358 33.516C21.3637 32.5794 22.4364 31.8922 23.6333 31.5316C30.2782 29.5217 48.396 22.8264 79.8597 31.1483C80.4187 31.2939 80.8423 31.7592 80.9288 32.3226C80.9721 32.5997 80.9332 32.8835 80.817 33.1388C80.7007 33.3941 80.5122 33.6097 80.2747 33.759C67.7111 41.7467 55.7425 55.2353 50.8727 63.0616C50.591 63.5137 50.2141 63.8988 49.7681 64.1899C49.3221 64.4811 48.818 64.6713 48.2908 64.7473C35.1105 66.642 25.3737 71.8864 17.0547 77.7086C16.849 77.853 16.6074 77.9375 16.3566 77.9527C16.1058 77.968 15.8557 77.9134 15.6341 77.795C15.4109 77.6794 15.225 77.5031 15.0975 77.2865C14.9701 77.0698 14.9064 76.8216 14.9137 76.5704ZM205.889 61.1828C206.504 62.0704 206.591 63.2115 206.14 64.1811C205.913 64.662 205.566 65.076 205.131 65.3828C204.697 65.6896 204.191 65.8787 203.662 65.9317C183.76 67.943 161.494 72.9872 143.601 73.3315C143.25 73.3373 142.902 73.2738 142.575 73.1445C142.249 73.0151 141.951 72.8226 141.699 72.578C141.445 72.3368 141.242 72.0461 141.103 71.7238C140.964 71.4016 140.893 71.0544 140.893 70.7035C140.871 66.1046 140.835 58.5188 140.835 53.3897C140.835 50.8827 142.159 48.5631 144.31 47.2692C150.956 43.2682 162.669 39.5366 170.849 37.6045C174.133 36.8337 177.589 37.3908 180.464 39.1548C189.713 44.8487 200.212 52.9113 205.889 61.1828ZM184.796 107.804C184.039 106.471 183.823 104.899 184.193 103.412C184.563 101.925 185.491 100.638 186.784 99.8159C193.931 95.227 202.384 89.9149 207.04 77.4435C207.24 76.9163 207.589 76.4589 208.045 76.1276C208.5 75.7964 209.043 75.6057 209.606 75.5791C211.152 75.4927 212.69 76.3975 213.083 77.8815C216.303 90.1541 211.498 107.288 200.482 132.212C200.29 132.65 199.906 132.973 199.426 132.991C199.191 132.997 198.961 132.932 198.764 132.804C198.567 132.677 198.412 132.494 198.321 132.278C195.497 125.282 189.013 115.18 184.798 107.804H184.796ZM177.496 192.975C175.539 195.345 172.309 196.286 169.361 195.364C161.916 193.023 151.668 190.026 145.895 188.471C144.85 188.195 143.919 187.596 143.232 186.761C142.546 185.926 142.14 184.896 142.071 183.818C141.951 181.931 141.944 180.04 142.052 178.153C142.155 176.536 142.583 174.957 143.309 173.509C144.036 172.062 145.047 170.775 146.281 169.727C156.769 160.827 167.393 150.449 172.82 144.293C173.447 143.584 174.248 143.05 175.143 142.745C176.039 142.44 176.999 142.373 177.928 142.551C181.348 143.206 186.161 144.417 189.263 145.188C190.013 145.369 190.703 145.744 191.264 146.275C191.825 146.806 192.238 147.474 192.461 148.213C193.451 151.497 194.467 155.649 195.063 159.657C195.35 161.641 195.085 163.666 194.297 165.51C191.136 172.84 186.238 182.484 177.497 192.975H177.496ZM166.871 202.783C166.857 202.786 166.843 202.79 166.83 202.796C166.915 202.817 167.01 202.84 167.093 202.865C167.912 203.095 168.583 203.657 168.939 204.408C169.114 204.782 169.205 205.19 169.205 205.602C169.205 206.015 169.114 206.423 168.939 206.797C166.737 211.502 163.656 216.384 163.013 217.336C162.444 218.29 161.686 219.571 159.852 220.314C152.484 223.227 144.837 223.828 136.713 223.828C128.817 223.828 120.951 223.237 113.584 220.314C112.48 219.879 111.543 219.107 110.904 218.107C110.548 217.548 109.91 216.57 109.115 215.271L109.136 215.261C107.811 213.12 106.073 210.121 104.516 206.797C104.34 206.423 104.249 206.015 104.249 205.602C104.249 205.189 104.34 204.782 104.516 204.408C104.872 203.657 105.545 203.097 106.36 202.866C113.858 200.835 126.733 197.475 135.105 196.299C136.204 196.145 137.319 196.145 138.417 196.299C146.706 197.458 159.379 200.761 166.871 202.783ZM78.4795 159.657C79.0731 155.649 80.0917 151.497 81.083 148.213C81.3054 147.473 81.7177 146.805 82.2789 146.274C82.84 145.743 83.5305 145.369 84.2815 145.188C87.382 144.417 92.1928 143.206 95.6147 142.551C96.5442 142.373 97.5041 142.44 98.3999 142.745C99.2958 143.05 100.097 143.584 100.724 144.293C106.151 150.449 116.774 160.827 127.263 169.727C128.497 170.775 129.508 172.062 130.234 173.509C130.96 174.957 131.387 176.536 131.489 178.153C131.6 180.039 131.594 181.931 131.471 183.816C131.403 184.895 130.996 185.926 130.31 186.761C129.623 187.596 128.691 188.195 127.646 188.471C121.874 190.026 111.625 193.023 104.18 195.364C102.74 195.817 101.198 195.832 99.7502 195.407C98.302 194.981 97.013 194.135 96.0469 192.975C87.3042 182.484 82.4056 172.84 79.2474 165.51C78.4592 163.666 78.1935 161.642 78.4795 159.657ZM86.7567 99.8159C88.0503 100.637 88.9783 101.925 89.3484 103.412C89.7186 104.899 89.5025 106.472 88.745 107.804C84.5307 115.18 78.0472 125.28 75.2204 132.278C75.1294 132.494 74.9757 132.677 74.7791 132.804C74.5826 132.932 74.3523 132.997 74.1182 132.991C73.6384 132.973 73.2538 132.65 73.0592 132.212C62.0459 107.289 57.2395 90.1541 60.4596 77.8815C60.853 76.3975 62.3802 75.4927 63.9261 75.5791C64.4901 75.6052 65.0341 75.7956 65.4913 76.1269C65.9485 76.4581 66.2989 76.9157 66.4994 77.4435C71.1603 89.9149 79.6105 95.227 86.7567 99.8159ZM132.651 70.7035C132.651 71.4066 132.363 72.0867 131.846 72.578C131.594 72.8225 131.296 73.0149 130.969 73.1442C130.643 73.2735 130.294 73.3371 129.943 73.3315C112.048 72.9872 89.7824 67.943 69.8823 65.9317C69.3532 65.879 68.8467 65.69 68.4124 65.3832C67.9781 65.0764 67.6307 64.6622 67.4042 64.1811C67.1798 63.7032 67.0847 63.1748 67.1284 62.6487C67.1721 62.1226 67.3532 61.6171 67.6534 61.1828C73.3301 52.9113 83.8291 44.8487 93.0774 39.1548C95.9536 37.3908 99.4099 36.8337 102.695 37.6045C110.877 39.5366 122.585 43.2667 129.231 47.2692C130.289 47.9028 131.166 48.7993 131.775 49.8718C132.385 50.9443 132.706 52.1561 132.709 53.3897C132.709 58.5188 132.67 66.1046 132.651 70.7035ZM93.8857 93.7142C87.8834 90.7549 78.4982 86.1458 74.6268 76.216C74.5807 76.0895 74.567 75.9535 74.5869 75.8204C74.6067 75.6873 74.6596 75.5612 74.7406 75.4538C74.8266 75.3508 74.9363 75.2701 75.0602 75.2186C75.1842 75.1672 75.3187 75.1465 75.4524 75.1584C79.9952 75.7016 87.4771 77.1135 93.1841 78.2273C94.8417 78.5502 96.3032 79.5183 97.2471 80.9186C98.1778 82.3176 98.5149 84.0307 98.1677 85.679C97.6303 88.1917 96.786 90.7721 95.9028 92.9506C95.7486 93.3223 95.4504 93.6278 95.0672 93.7719C94.8765 93.8423 94.6736 93.8736 94.4706 93.8637C94.2675 93.8538 94.0686 93.8029 93.8857 93.7142ZM107.686 83.2614C107.706 82.9575 107.788 82.661 107.929 82.3907C108.069 82.1204 108.264 81.8821 108.501 81.6909C108.738 81.4979 109.011 81.3551 109.305 81.2714C109.599 81.1877 109.907 81.1647 110.21 81.2039C115.054 81.8624 123.88 82.8522 130 83.2153C131.412 83.2988 132.507 84.45 132.507 85.8519L132.402 127.356C132.396 128.042 132.124 128.699 131.644 129.188C131.164 129.678 130.513 129.963 129.827 129.983C113.365 130.536 99.437 131.859 88.8315 133.64C88.4567 133.702 88.0721 133.665 87.7165 133.531C87.3608 133.398 87.0466 133.173 86.8057 132.879C86.5698 132.585 86.4154 132.234 86.358 131.861C86.3006 131.488 86.3422 131.107 86.4787 130.755C90.9422 119.683 106.72 99.1157 107.686 83.2614ZM139.131 160.189C137.597 160.707 135.936 160.707 134.402 160.189C124.734 156.926 114.606 147.604 110.211 141.921C110.07 141.742 109.979 141.528 109.947 141.302C109.916 141.076 109.944 140.846 110.03 140.635C110.112 140.423 110.248 140.236 110.425 140.092C110.601 139.949 110.812 139.854 111.037 139.816C121.24 138.027 130.951 138.675 136.742 138.675H136.799C142.591 138.675 152.302 138.027 162.504 139.816C162.965 139.894 163.349 140.205 163.511 140.635C163.597 140.846 163.626 141.076 163.594 141.302C163.562 141.528 163.471 141.742 163.33 141.921C158.933 147.605 148.801 156.934 139.131 160.19V160.189ZM176.295 80.9186C177.239 79.518 178.701 78.5494 180.358 78.2258C186.064 77.1135 193.547 75.7016 198.09 75.157C198.224 75.1451 198.358 75.166 198.482 75.2177C198.606 75.2694 198.715 75.3504 198.8 75.4538C198.882 75.5613 198.935 75.6875 198.955 75.8209C198.976 75.9543 198.962 76.0906 198.916 76.2174C195.043 86.1458 185.661 90.7549 179.658 93.7142C179.475 93.8026 179.276 93.8533 179.073 93.8632C178.87 93.8731 178.668 93.842 178.477 93.7719C178.289 93.6996 178.117 93.5894 177.974 93.4481C177.83 93.3068 177.717 93.1375 177.641 92.9506C176.758 90.7721 175.912 88.1917 175.373 85.679C175.203 84.864 175.197 84.0234 175.355 83.206C175.514 82.3887 175.833 81.6111 176.295 80.9186ZM187.064 130.755C187.2 131.107 187.242 131.488 187.185 131.861C187.127 132.234 186.973 132.585 186.737 132.879C186.247 133.478 185.479 133.765 184.711 133.64C174.107 131.859 160.179 130.536 143.715 129.983C143.03 129.963 142.379 129.678 141.899 129.188C141.419 128.699 141.148 128.042 141.142 127.356C141.108 113.522 141.072 99.6867 141.035 85.8519C141.035 84.45 142.13 83.2988 143.542 83.2153C149.661 82.8522 158.49 81.8624 163.333 81.2039C163.635 81.1651 163.942 81.1882 164.235 81.2719C164.528 81.3555 164.801 81.4979 165.037 81.6903C165.274 81.8828 165.468 82.1213 165.609 82.3914C165.751 82.6615 165.835 82.9575 165.858 83.2614C166.825 99.1416 182.586 119.648 187.064 130.755ZM78.2878 19.0328C97.6879 16.3299 116.908 14.8531 136.743 14.8618H136.801C156.633 14.8531 175.853 16.3299 195.256 19.0328C195.651 19.0876 195.948 19.4218 195.958 19.8108C195.959 20.0041 195.893 20.1917 195.769 20.3404C195.646 20.4892 195.474 20.5894 195.284 20.6234C181.33 23.0295 159.111 28.5895 142.266 35.3958C140.489 36.119 138.613 36.5671 136.771 36.6031C134.928 36.5671 133.055 36.119 131.278 35.3958C114.43 28.5895 92.213 23.0295 78.2576 20.6234C78.0676 20.5894 77.8959 20.489 77.7729 20.3402C77.65 20.1914 77.5838 20.0038 77.5862 19.8108C77.5928 19.6193 77.6669 19.4363 77.7952 19.294C77.9236 19.1516 78.098 19.0592 78.2878 19.0328ZM267.142 27.2453C266.766 25.322 265.873 23.5374 264.56 22.0822C263.247 20.627 261.564 19.5561 259.689 18.9838C219.817 6.73432 178.285 0.631179 136.801 0.621094H136.743C95.2588 0.631179 53.7254 6.73432 13.8562 18.9838C11.9811 19.5553 10.2969 20.626 8.9837 22.0812C7.67054 23.5365 6.77797 25.3216 6.40156 27.2453C-17.3612 150.282 34.2879 255.321 132.226 299.159C133.637 299.792 135.166 300.119 136.712 300.119C138.258 300.119 139.787 299.792 141.198 299.159C236.216 256.515 291.623 154.009 267.142 27.2453Z" fill="#DB1C30"/>
</svg>
